<svg xmlns:xlink="http://www.w3.org/1999/xlink" viewBox="0 0 218 44" xmlns="http://www.w3.org/2000/svg" data-logo="logo" width="576"  height="116" >
        <g transform="translate(0, 22) rotate(0)" id="logogram" style="opacity: 1;"></g>
        <g transform="translate(0, 1)" id="logotype" style="opacity: 1;"><path d="M7.52 34L2.31 34L2.31 8.54L12.24 8.54Q15.14 8.54 17.18 9.64Q19.21 10.74 20.28 12.68Q21.35 14.62 21.35 17.13L21.35 17.13Q21.35 19.66 20.26 21.58Q19.17 23.51 17.12 24.59Q15.06 25.68 12.12 25.68L12.12 25.68L5.73 25.68L5.73 21.47L11.28 21.47Q12.89 21.47 13.92 20.92Q14.95 20.36 15.46 19.39Q15.96 18.41 15.96 17.13L15.96 17.13Q15.96 15.85 15.46 14.88Q14.95 13.90 13.91 13.37Q12.87 12.84 11.26 12.84L11.26 12.84L7.52 12.84L7.52 34ZM31.14 34.38L31.14 34.38Q28.26 34.38 26.16 33.14Q24.06 31.90 22.92 29.68Q21.79 27.47 21.79 24.53L21.79 24.53Q21.79 21.56 22.92 19.35Q24.06 17.13 26.16 15.89Q28.26 14.65 31.14 14.65L31.14 14.65Q34.02 14.65 36.12 15.89Q38.21 17.13 39.35 19.35Q40.48 21.56 40.48 24.53L40.48 24.53Q40.48 27.47 39.35 29.68Q38.21 31.90 36.12 33.14Q34.02 34.38 31.14 34.38ZM31.14 30.34L31.14 30.34Q32.50 30.34 33.43 29.58Q34.35 28.82 34.81 27.50Q35.27 26.17 35.27 24.52L35.27 24.52Q35.27 22.82 34.81 21.51Q34.35 20.19 33.43 19.44Q32.50 18.69 31.14 18.69L31.14 18.69Q29.77 18.69 28.85 19.44Q27.94 20.19 27.48 21.51Q27.02 22.82 27.02 24.52L27.02 24.52Q27.02 26.17 27.48 27.50Q27.94 28.82 28.85 29.58Q29.77 30.34 31.14 30.34ZM49.92 24.48L46.43 28.41L46.43 22.24L47.20 22.24L53.45 14.89L59.38 14.89L51.13 24.48L49.92 24.48ZM46.91 34L41.78 34L41.78 8.54L46.91 8.54L46.91 34ZM59.74 34L53.71 34L47.97 25.63L51.40 21.99L59.74 34ZM68.44 34.38L68.44 34.38Q65.52 34.38 63.40 33.18Q61.28 31.98 60.14 29.78Q59.01 27.57 59.01 24.55L59.01 24.55Q59.01 21.59 60.13 19.37Q61.26 17.15 63.33 15.90Q65.40 14.65 68.18 14.65L68.18 14.65Q70.06 14.65 71.69 15.25Q73.31 15.85 74.54 17.06Q75.77 18.26 76.46 20.07Q77.15 21.88 77.15 24.34L77.15 24.34L77.15 25.78L61.11 25.78L61.11 22.57L74.64 22.57L72.25 23.42Q72.25 21.93 71.80 20.83Q71.34 19.73 70.45 19.12Q69.55 18.52 68.22 18.52L68.22 18.52Q66.90 18.52 65.97 19.13Q65.04 19.75 64.56 20.80Q64.08 21.85 64.08 23.20L64.08 23.20L64.08 25.47Q64.08 27.13 64.64 28.26Q65.19 29.39 66.19 29.95Q67.19 30.51 68.52 30.51L68.52 30.51Q69.43 30.51 70.16 30.26Q70.90 30.00 71.42 29.50Q71.94 28.99 72.22 28.26L72.22 28.26L76.86 29.13Q76.40 30.70 75.26 31.89Q74.11 33.08 72.39 33.73Q70.68 34.38 68.44 34.38ZM92.10 34.38L92.10 34.38Q89.47 34.38 87.56 33.42Q85.64 32.46 84.62 30.86Q83.59 29.25 83.59 27.28L83.59 27.28Q83.59 25.75 84.20 24.58Q84.81 23.42 85.89 22.44Q86.98 21.46 88.40 20.48L88.40 20.48L93.25 17.27Q93.78 16.93 94.21 16.49Q94.63 16.06 94.88 15.55Q95.13 15.05 95.13 14.47L95.13 14.47Q95.13 13.59 94.51 12.98Q93.90 12.36 92.75 12.36L92.75 12.36Q92.00 12.36 91.44 12.65Q90.87 12.95 90.57 13.48Q90.26 14.00 90.26 14.72L90.26 14.72Q90.26 15.56 90.68 16.39Q91.10 17.22 91.83 18.12Q92.57 19.03 93.52 20.14L93.52 20.14L105.57 34L100.17 34L90.16 22.77Q89.10 21.56 88.10 20.33Q87.11 19.10 86.47 17.70Q85.83 16.31 85.83 14.67L85.83 14.67Q85.83 12.84 86.69 11.38Q87.54 9.92 89.09 9.07Q90.63 8.23 92.72 8.23L92.72 8.23Q94.75 8.23 96.22 9.04Q97.69 9.85 98.50 11.21Q99.30 12.57 99.30 14.23L99.30 14.23Q99.30 15.41 98.88 16.45Q98.46 17.49 97.71 18.38Q96.96 19.27 95.92 20.04L95.92 20.04L90.72 23.78Q89.68 24.55 89.14 25.31Q88.60 26.07 88.60 27.08L88.60 27.08Q88.60 28.04 89.06 28.75Q89.52 29.47 90.34 29.86Q91.16 30.24 92.26 30.24L92.26 30.24Q93.64 30.24 94.98 29.63Q96.31 29.01 97.39 27.87Q98.48 26.74 99.12 25.16Q99.76 23.58 99.76 21.66L99.76 21.66L104.05 21.66Q104.05 24.02 103.54 25.87Q103.02 27.73 102.14 29.08Q101.25 30.43 100.12 31.28L100.12 31.28L98.80 32.14Q97.40 33.28 95.61 33.83Q93.81 34.38 92.10 34.38ZM123.10 34L117.14 34L110.30 8.54L115.99 8.54L118.95 21.06Q119.31 22.64 119.61 24.42Q119.91 26.21 120.20 28.01Q120.49 29.81 120.76 31.47L120.76 31.47L119.84 31.47Q120.14 29.81 120.45 28.01Q120.76 26.21 121.08 24.42Q121.41 22.64 121.80 21.06L121.80 21.06L124.91 8.54L130.33 8.54L133.42 21.06Q133.82 22.64 134.14 24.42Q134.47 26.21 134.78 28.01Q135.10 29.81 135.41 31.47L135.41 31.47L134.45 31.47Q134.74 29.81 135.02 28.01Q135.30 26.21 135.62 24.42Q135.94 22.64 136.28 21.06L136.28 21.06L139.23 8.54L144.94 8.54L138.09 34L132.14 34L128.76 20.98Q128.21 18.81 127.83 16.27Q127.44 13.73 126.96 11.07L126.96 11.07L128.26 11.07Q127.73 13.68 127.40 16.18Q127.07 18.67 126.47 20.98L126.47 20.98L123.10 34ZM150.82 34L145.69 34L145.69 14.89L150.82 14.89L150.82 34ZM148.26 12.40L148.26 12.40Q147.09 12.40 146.27 11.63Q145.45 10.86 145.45 9.77L145.45 9.77Q145.45 8.67 146.27 7.90Q147.09 7.13 148.26 7.13L148.26 7.13Q149.42 7.13 150.25 7.90Q151.07 8.66 151.07 9.77L151.07 9.77Q151.07 10.86 150.25 11.63Q149.42 12.40 148.26 12.40ZM161.38 41.55L161.38 41.55Q159.00 41.55 157.23 40.95Q155.45 40.34 154.34 39.28Q153.23 38.22 152.80 36.87L152.80 36.87L157.21 35.64Q157.45 36.17 157.95 36.67Q158.46 37.18 159.29 37.50Q160.13 37.83 161.36 37.83L161.36 37.83Q163.33 37.83 164.45 36.93Q165.57 36.03 165.57 34.14L165.57 34.14L165.57 30.62L165.17 30.62Q164.83 31.39 164.18 32.10Q163.53 32.82 162.48 33.27Q161.43 33.73 159.87 33.73L159.87 33.73Q157.72 33.73 155.96 32.72Q154.20 31.71 153.15 29.64Q152.10 27.57 152.10 24.41L152.10 24.41Q152.10 21.18 153.17 19.01Q154.23 16.84 156.00 15.75Q157.77 14.65 159.89 14.65L159.89 14.65Q161.50 14.65 162.59 15.19Q163.69 15.73 164.36 16.54Q165.04 17.35 165.38 18.11L165.38 18.11L165.60 18.11L165.60 14.89L170.64 14.89L170.64 33.85Q170.64 36.43 169.45 38.14Q168.27 39.86 166.18 40.71Q164.10 41.55 161.38 41.55ZM161.48 29.83L161.48 29.83Q162.80 29.83 163.71 29.18Q164.63 28.53 165.10 27.31Q165.58 26.09 165.58 24.38L165.58 24.38Q165.58 22.69 165.10 21.42Q164.63 20.16 163.71 19.46Q162.80 18.76 161.48 18.76L161.48 18.76Q160.13 18.76 159.22 19.48Q158.30 20.21 157.83 21.47Q157.36 22.74 157.36 24.38L157.36 24.38Q157.36 26.05 157.83 27.28Q158.30 28.50 159.22 29.16Q160.15 29.83 161.48 29.83ZM181.22 41.55L181.22 41.55Q178.84 41.55 177.06 40.95Q175.29 40.34 174.18 39.28Q173.07 38.22 172.64 36.87L172.64 36.87L177.05 35.64Q177.29 36.17 177.79 36.67Q178.29 37.18 179.13 37.50Q179.97 37.83 181.20 37.83L181.20 37.83Q183.17 37.83 184.28 36.93Q185.40 36.03 185.40 34.14L185.40 34.14L185.40 30.62L185.01 30.62Q184.67 31.39 184.02 32.10Q183.37 32.82 182.32 33.27Q181.27 33.73 179.71 33.73L179.71 33.73Q177.56 33.73 175.80 32.72Q174.04 31.71 172.99 29.64Q171.94 27.57 171.94 24.41L171.94 24.41Q171.94 21.18 173.01 19.01Q174.07 16.84 175.84 15.75Q177.61 14.65 179.73 14.65L179.73 14.65Q181.34 14.65 182.43 15.19Q183.52 15.73 184.20 16.54Q184.87 17.35 185.22 18.11L185.22 18.11L185.44 18.11L185.44 14.89L190.48 14.89L190.48 33.85Q190.48 36.43 189.29 38.14Q188.10 39.86 186.02 40.71Q183.93 41.55 181.22 41.55ZM181.32 29.83L181.32 29.83Q182.64 29.83 183.55 29.18Q184.46 28.53 184.94 27.31Q185.42 26.09 185.42 24.38L185.42 24.38Q185.42 22.69 184.94 21.42Q184.46 20.16 183.55 19.46Q182.64 18.76 181.32 18.76L181.32 18.76Q179.97 18.76 179.06 19.48Q178.14 20.21 177.67 21.47Q177.20 22.74 177.20 24.38L177.20 24.38Q177.20 26.05 177.67 27.28Q178.14 28.50 179.06 29.16Q179.99 29.83 181.32 29.83ZM192.58 8.54L197.71 8.54L197.71 34L192.58 34L192.58 8.54ZM208.42 34.38L208.42 34.38Q205.50 34.38 203.38 33.18Q201.26 31.98 200.12 29.78Q198.99 27.57 198.99 24.55L198.99 24.55Q198.99 21.59 200.11 19.37Q201.24 17.15 203.31 15.90Q205.38 14.65 208.16 14.65L208.16 14.65Q210.04 14.65 211.67 15.25Q213.29 15.85 214.52 17.06Q215.75 18.26 216.44 20.07Q217.14 21.88 217.14 24.34L217.14 24.34L217.14 25.78L201.09 25.78L201.09 22.57L214.62 22.57L212.23 23.42Q212.23 21.93 211.78 20.83Q211.33 19.73 210.43 19.12Q209.53 18.52 208.20 18.52L208.20 18.52Q206.88 18.52 205.95 19.13Q205.02 19.75 204.54 20.80Q204.06 21.85 204.06 23.20L204.06 23.20L204.06 25.47Q204.06 27.13 204.62 28.26Q205.17 29.39 206.17 29.95Q207.17 30.51 208.51 30.51L208.51 30.51Q209.41 30.51 210.15 30.26Q210.88 30.00 211.40 29.50Q211.92 28.99 212.20 28.26L212.20 28.26L216.85 29.13Q216.38 30.70 215.24 31.89Q214.09 33.08 212.38 33.73Q210.66 34.38 208.42 34.38Z" fill="#111111"></path></g>
        
      </svg>