<svg version="1.1" viewBox="0.0 0.0 960.0 368.503937007874" fill="none" stroke="none" stroke-linecap="square" stroke-miterlimit="10" xmlns:xlink="http://www.w3.org/1999/xlink" xmlns="http://www.w3.org/2000/svg"><clipPath id="g39d6fa21f2f_0_0.0"><path d="m0 0l960.0 0l0 368.50394l-960.0 0l0 -368.50394z" clip-rule="nonzero"/></clipPath><g clip-path="url(#g39d6fa21f2f_0_0.0)"><path fill="#000000" fill-opacity="0.0" d="m0 0l960.0 0l0 368.50394l-960.0 0z" fill-rule="evenodd"/><path fill="#ffffff" d="m156.22878 170.40335l-8.059525 58.611603l102.366516 0l80.87869 137.29218l67.7677 0l-73.14072 -124.809906l0 -0.16079712c-0.31307983 0 -2.5257263 0.79125977 -3.1603394 0.94781494c-1.2607727 0.31733704 -2.5257568 0.63468933 -3.9472656 0.9477997l-0.15655518 0c-3.0249634 0.58392334 -6.079529 0.8674164 -9.121429 0.8674164c-12.683685 0 -25.1474 -4.9590607 -34.31961 -14.136688c-12.637146 -12.321472 -17.536316 -30.49057 -12.954468 -47.555298c1.2649841 -4.2651215 2.9996033 -8.373688 5.2122498 -12.00412z" fill-rule="evenodd"/><path fill="#ffffff" d="m327.62827 138.96243c-4.425354 13.112717 -13.902161 23.855927 -29.699677 28.4384c-8.529114 3.4781036 -15.006348 10.899765 -17.536316 19.908142c-2.6822815 10.582428 0.31729126 21.79953 8.059509 29.3862c5.707245 5.7079926 13.309845 8.754517 21.090149 8.754517c2.7668762 0 5.5549316 -0.38504028 8.292206 -1.1720581c45.17563 -12.638824 67.29385 -47.555298 73.453766 -84.52396l0 0c-9.108734 7.180481 -20.24823 11.014008 -31.501923 11.014008c-5.3391724 0 -10.703735 -0.86317444 -15.8905945 -2.6403046c-6.1599426 -2.0563965 -11.528717 -5.2129364 -16.26712 -9.1649475z" fill-rule="evenodd"/><path fill="#ffffff" d="m335.6849 21.902067l0 0c1.5780334 3.473877 2.843048 7.1085415 3.4734192 10.899763c3.1603394 17.85175 -3.4734192 36.338184 -17.692871 48.185757c-1.7346191 1.4217072 -3.4734192 2.6868591 -5.2122498 3.952011c6.794525 6.160736 11.215637 14.373642 13.110992 23.538582c2.6865234 10.269302 10.267975 18.642998 20.379395 21.960312c3.3803406 1.1255188 6.85376 1.6755829 10.289093 1.6755829c7.640686 0 15.103668 -2.7164764 20.988617 -7.836319c8.216064 -7.2693253 12.006775 -18.325645 10.267944 -29.068855c-5.529541 -31.755714 -23.222412 -59.08975 -55.60434 -73.30683z" fill-rule="evenodd"/><path fill="#ffffff" d="m234.42397 10.99866c5.846863 9.008384 9.163742 19.75159 9.163742 31.28181c0 11.377899 -3.3168793 21.96032 -8.846436 30.968704l63.659668 0c3.951477 -1.4217148 7.742218 -3.4781113 11.059082 -6.1649704c9.002991 -7.739002 13.267548 -19.273457 11.215637 -30.80791c-1.8953552 -10.743206 -9.481018 -19.747358 -19.748993 -23.855927c-6.9468384 -0.9478054 -14.21521 -1.4217081 -21.957428 -1.4217081z" fill-rule="evenodd"/><path fill="#ffffff" d="m184.8328 4.106285c-8.034134 0 -16.114822 2.5006833 -22.917816 7.6839952c-4.108032 3.1607618 -4.89917 9.004151 -1.8953705 13.11272c1.8530579 2.4075947 4.628418 3.6769772 7.43338 3.6769772c1.9799805 0 3.976883 -0.63045883 5.6776276 -1.9379234c3.5664978 -2.7249413 7.691452 -4.0366364 11.774094 -4.0366364c5.863785 0 11.642944 2.703785 15.552139 7.827858c6.6380005 8.530252 4.89917 20.695166 -3.7907257 27.173246c-3.5453491 2.7587929 -7.712616 4.095875 -11.846024 4.095875c-5.808777 0 -11.53717 -2.648777 -15.323669 -7.730541c-1.8530579 -2.4075928 -4.6284027 -3.6727448 -7.43338 -3.6727448c-1.9842072 0 -3.9768677 0.63045883 -5.6776276 1.9379234c-4.108032 2.9999733 -4.89917 8.847595 -1.7388153 12.951931c6.320694 8.373695 15.480194 13.430069 25.117783 14.695221c1.7472839 0.22425842 3.4988098 0.33850098 5.254547 0.33850098c8.089142 0 16.140213 -2.4414444 23.02359 -7.764389c16.740967 -12.638821 19.901306 -36.655533 7.264145 -53.39869c-7.454529 -9.786939 -18.919785 -14.953325 -30.473877 -14.953325z" fill-rule="evenodd"/><path fill="#23a1e0" d="m57.80926 4.20783c-21.009762 0 -38.072258 17.0605 -38.072258 38.07301c0 21.173298 17.062494 38.233803 38.072258 38.233803c21.166294 0 38.228794 -17.060505 38.228794 -38.233803c0 -21.012508 -17.0625 -38.07301 -38.228794 -38.07301z" fill-rule="evenodd"/><path fill="#23a1e0" d="m135.84422 42.12224l-69.506516 82.467545l-66.34617 0l33.01655 241.56348l58.76471 0.1607666l44.071426 -324.19177z" fill-rule="evenodd"/><path fill="#ffffff" d="m937.5264 38.723694c6.619934 0 9.490051 3.247963 9.490051 8.245338c0 4.994034 -2.6225586 7.991123 -9.864685 7.991123l-31.1026 0l0 -7.118088c0 -5.1211395 2.873413 -9.118374 10.1188965 -9.118374zm-21.358337 -12.861391c-16.611755 0 -23.10791 9.365904 -23.10791 21.856005l0 22.729034c0 12.490105 6.496155 21.85601 23.10791 21.85601l40.59265 0l0 -12.9885025l-40.59265 0c-7.2454834 0 -10.1188965 -3.8701248 -10.1188965 -9.115028l0 -4.873619l31.477234 0c16.36084 0 22.479004 -6.867214 22.479004 -19.106441c0 -12.740974 -6.616577 -20.357458 -22.355225 -20.357458z" fill-rule="evenodd"/><path fill="#ffffff" d="m805.7567 25.862303l24.35559 59.199196c2.4954224 6.2450485 7.492981 8.743736 15.113098 8.743736c7.6167603 0 12.487244 -2.3749237 15.236877 -8.743736l25.603333 -59.199196l-14.236694 0l-23.10791 53.32878c-0.6254883 1.3747787 -1.7494507 1.9969406 -3.4956055 1.9969406c-1.6256714 0 -2.7496338 -0.62216187 -3.2480469 -1.9969406l-22.107727 -53.32878z" fill-rule="evenodd"/><path fill="#ffffff" d="m780.0263 0.8821009l0 15.48719l13.490723 0l0 -15.48719zm0 24.980202l0 66.44105l13.363586 0l0 -66.44105z" fill-rule="evenodd"/><path fill="#ffffff" d="m735.68713 10.12424l0 15.738063l-8.991577 0l0 12.861391l8.991577 0l0 30.599747c0 17.360367 5.8706055 22.979912 19.608887 22.979912l11.988831 0l0 -12.239235l-9.242493 0c-6.2419434 0 -8.867798 -2.4953384 -8.867798 -9.864296l0 -31.476128l18.361145 0l0 -12.861391l-18.361145 0l0 -15.738063z" fill-rule="evenodd"/><path fill="#ffffff" d="m700.8414 0.8821009l0 15.48719l13.487366 0l0 -15.48719zm0 24.980202l0 66.44105l13.363586 0l0 -66.44105z" fill-rule="evenodd"/><path fill="#ffffff" d="m612.15967 25.862303l0 40.213173c0 15.363426 9.868042 26.227875 28.85144 26.227875l12.36676 0c18.983398 0 28.7276 -10.864449 28.7276 -26.227875l0 -40.213173l-13.116089 0l0 39.714767c0 7.867363 -5.619751 13.737778 -16.23706 13.737778l-10.741089 0c-10.61731 0 -16.360779 -5.8704147 -16.360779 -13.737778l0 -39.714767z" fill-rule="evenodd"/><path fill="#ffffff" d="m567.82056 10.12424l0 15.738063l-9.1154175 0l0 12.861391l9.1154175 0l0 30.599747c0 17.360367 5.8706055 22.979912 19.608887 22.979912l11.992126 0l0 -12.239235l-9.242493 0c-6.2452393 0 -8.867798 -2.4953384 -8.867798 -9.864296l0 -31.476128l18.35785 0l0 -12.861391l-18.35785 0l0 -15.738063z" fill-rule="evenodd"/><path fill="#ffffff" d="m485.76215 25.862303c-6.619934 0 -9.242462 2.4953442 -9.242462 10.366049l0 56.075l13.239838 0l0 -51.70648c0 -1.247673 0.6221924 -1.8731804 1.7494812 -1.8731804l21.729706 0c13.989197 0 19.986938 5.7466507 19.986938 16.236462l0 37.343197l13.487366 0l0 -37.343197c0 -18.35717 -10.991943 -29.097853 -33.474304 -29.097853z" fill-rule="evenodd"/><path fill="#ffffff" d="m441.92142 7.3780236l0 84.92533l14.862244 0l0 -84.92533z" fill-rule="evenodd"/><path fill="#ffffff" d="m847.84796 164.24352c-15.487732 0 -21.609253 7.3689575 -21.609253 19.360657c0 10.115189 4.4957886 19.357315 22.856995 19.357315l15.738647 0c6.7436523 0 9.48999 2.124054 9.48999 7.3689575c0 5.244919 -2.4954224 7.368973 -8.740723 7.368973l-38.595642 0l0 12.864731l38.595642 0c15.611511 0 21.856812 -8.245346 21.856812 -20.10994c0 -10.238937 -4.746643 -18.731796 -23.10785 -18.731796l-15.611572 0c-7.3692017 0 -9.366211 -2.4986877 -9.366211 -7.1214294c0 -4.994034 2.4954224 -7.6164856 8.616943 -7.6164856l36.72235 0l0 -12.740982z" fill-rule="evenodd"/><path fill="#ffffff" d="m785.14764 148.5088l0 15.734711l-8.991638 0l0 12.740982l8.991638 0l0 30.723495c0 17.360382 5.994385 22.856155 19.608887 22.856155l11.98877 0l0 -12.115463l-9.242432 0c-6.2419434 0 -8.867859 -2.4986877 -8.867859 -9.991409l0 -31.472778l18.361206 0l0 -12.740982l-18.361206 0l0 -15.734711z" fill-rule="evenodd"/><path fill="#ffffff" d="m736.8111 176.9845c11.490356 0 16.611694 6.117935 16.611694 20.481216c0 14.239517 -5.121338 20.233704 -16.611694 20.233704l-11.366638 0c-11.614136 0 -16.611694 -5.9941864 -16.611694 -20.233704c0 -14.363281 4.9975586 -20.481216 16.611694 -20.481216zm-12.614319 -12.740982c-17.735718 0 -28.85144 10.740692 -28.85144 33.2222c0 22.357742 11.115723 33.098434 28.85144 33.098434l13.8619995 0c17.611938 0 28.85144 -10.740692 28.85144 -33.098434c0 -22.481506 -11.239502 -33.2222 -28.85144 -33.2222z" fill-rule="evenodd"/><path fill="#ffffff" d="m652.1301 176.9845c11.614197 0 16.611755 6.117935 16.611755 20.481216c0 14.239517 -4.9975586 20.233704 -16.611755 20.233704l-13.116089 0c-10.741089 0 -14.989319 -4.87027 -14.989319 -16.112701l0 -24.602219zm-41.34192 -41.59131l0 66.81903c0 19.109787 8.366089 28.351929 24.35559 28.351929l18.35785 0c17.611877 0 28.7276 -10.740692 28.7276 -33.098434c0 -22.481506 -11.115723 -33.2222 -28.7276 -33.2222l-29.476929 0l0 -28.850327z" fill-rule="evenodd"/><path fill="#ffffff" d="m564.8233 176.9845c11.4904175 0 16.611755 6.117935 16.611755 20.481216c0 14.239517 -5.121338 20.233704 -16.611755 20.233704l-11.490356 0c-11.490356 0 -16.611694 -5.9941864 -16.611694 -20.233704c0 -14.363281 5.121338 -20.481216 16.611694 -20.481216zm-12.738098 -12.740982c-17.735657 0 -28.7276 10.740692 -28.7276 33.2222c0 22.357742 10.991943 33.098434 28.7276 33.098434l13.98584 0c17.611877 0 28.854736 -10.740692 28.854736 -33.098434c0 -22.481506 -11.242859 -33.2222 -28.854736 -33.2222z" fill-rule="evenodd"/><path fill="#ffffff" d="m441.6739 145.75925l0 14.861679l46.587036 0c8.11853 0 11.741272 5.1211395 11.741272 11.115311c0 5.997528 -3.375183 11.867935 -11.741272 11.867935l-33.09964 0c-9.366241 0 -13.363647 3.8701324 -13.363647 13.486908l0 33.47307l14.862244 0l0 -30.599747c0 -1.4985352 0.7492981 -2.124054 2.124115 -2.124054l22.107697 0l19.358032 32.7238l16.487946 0l-19.736023 -33.847702c12.99234 -3.7463684 17.986572 -14.985443 17.986572 -25.602371c0 -13.613998 -8.118561 -25.354828 -27.352814 -25.354828z" fill-rule="evenodd"/><path fill="#ffffff" d="m645.25934 315.36572c11.614136 0 16.611694 5.9974976 16.611694 20.357452c0 14.363281 -4.9975586 20.233673 -16.611694 20.233673l-12.988953 0c-10.868225 0 -14.98938 -4.7464905 -14.98938 -16.109344l0 -24.481781zm-41.34198 -41.587982l0 66.691925c0 19.233551 8.493225 28.475708 24.35559 28.475708l18.361206 0c17.608582 0 28.727661 -10.864471 28.727661 -33.2222c0 -22.3544 -11.11908 -33.2222 -28.727661 -33.2222l-29.35315 0l0 -28.723236z" fill-rule="evenodd"/><path fill="#ffffff" d="m571.69415 340.09503l0 12.490112c0 2.3749084 -1.0001831 3.371704 -3.6227417 3.371704l-27.854553 0c-6.7437134 0 -9.366272 -3.1208496 -9.366272 -7.9911194c0 -4.873596 2.4987793 -7.870697 9.617126 -7.870697zm-49.835144 -37.594055l0 12.864746l39.716248 0c7.2454834 0 10.1188965 3.997223 10.1188965 9.242126l0 4.9973755l-31.477295 0c-16.36084 0 -22.479004 6.9943237 -22.479004 19.109802c0 12.613861 6.619934 20.230347 22.355225 20.230347l30.975525 0c11.239502 0 13.738281 -3.7463684 13.738281 -13.363159l0 -31.098145c0 -12.613861 -6.492798 -21.983093 -23.104492 -21.983093z" fill-rule="evenodd"/><path fill="#ffffff" d="m441.04834 284.0167l0 55.579956c0 16.985718 8.74408 29.348724 31.35019 29.348724l33.84561 0l0 -14.861694l-32.972534 0c-13.363647 0 -17.361023 -6.368805 -17.361023 -14.610809l0 -55.456177z" fill-rule="evenodd"/></g></svg>