<svg version="1.1" viewBox="0.0 0.0 960.0 444.09448818897636" fill="none" stroke="none" stroke-linecap="square" stroke-miterlimit="10" xmlns:xlink="http://www.w3.org/1999/xlink" xmlns="http://www.w3.org/2000/svg"><clipPath id="g39d6fa21f2f_0_0.0"><path d="m0 0l960.0 0l0 444.09448l-960.0 0l0 -444.09448z" clip-rule="nonzero"/></clipPath><g clip-path="url(#g39d6fa21f2f_0_0.0)"><path fill="#000000" fill-opacity="0.0" d="m0 0l960.0 0l0 444.09448l-960.0 0z" fill-rule="evenodd"/><path fill="#ffffff" d="m954.7136 6.2512274l-225.94354 0l0 76.97258l66.14386 0l0 265.16125l93.65582 0l0 -265.16125l66.14386 0l0 -76.97258l0 0z" fill-rule="evenodd"/><path fill="#ffffff" d="m706.52686 348.09387l-93.94708 0l0 -341.84265l93.94708 0z" fill-rule="evenodd"/><path fill="#ffffff" d="m596.7735 348.09387l-104.18994 0l-124.093414 -133.16473l0 -76.09558l120.287445 -132.87354l107.41351 0l-138.43686 172.09122z" fill-rule="evenodd"/><path fill="#23a1e0" d="m78.74589 131.225c-17.85485 21.948639 -33.366528 45.654648 -45.366825 71.40924l312.57666 145.45963l-267.20984 -216.86887l0 0z" fill-rule="evenodd"/><path fill="#23a1e0" d="m345.95572 348.09387l-145.75081 -310.2335c-25.754593 12.000301 -49.755203 26.634975 -71.41263 44.19524l217.16344 266.03827l0 0l0 0z" fill-rule="evenodd"/><path fill="#ffffff" d="m345.95572 348.09387l0.5858154 -341.84265l-2.9289856 0c-27.803162 0 -54.72934 3.514761 -80.77515 9.951716l83.11832 331.89093l0 0l0 0z" fill-rule="evenodd"/><path fill="#23a1e0" d="m11.135841 264.38974c-7.022749 26.631592 -10.534123 54.72937 -11.119917 83.70413l345.9398 0l-334.8199 -83.70413l0 0z" fill-rule="evenodd"/><path fill="#ffffff" d="m0.015924409 383.80017l0 43.60608l6.145752 0l0 -21.362854l19.608843 21.362854l9.074718 0l-22.24322 -23.12024l20.485838 -20.48584l-8.194334 0l-18.731846 19.023071l0 -19.023071z" fill-rule="evenodd"/><path fill="#ffffff" d="m55.91687 411.89456c1.1715889 0 2.6343803 0.29458618 3.802578 0.29458618l0 2.634369c0 4.974182 -2.925579 8.485565 -8.7801285 8.485565c-2.630989 0 -6.145752 -1.7539978 -6.145752 -5.2687683c0 -5.559967 7.9031334 -6.145752 11.123302 -6.145752zm-3.220169 -17.265656c-4.097168 0 -7.6085434 1.4627686 -10.53751 2.9255676l0.58579254 5.2687683c2.343174 -2.048584 5.8545494 -3.511383 9.074718 -3.511383c5.851162 0 7.899746 2.9255676 7.899746 8.485535c-2.3397865 -0.29119873 -3.802578 -0.29119873 -6.145752 -0.29119873c-6.145752 0 -14.92588 2.634369 -14.92588 10.534119c0 7.026123 4.6829605 9.951721 11.709099 9.951721c5.2653656 0 8.4855385 -2.9255981 9.94833 -4.682953l0 4.097168l5.563347 0c-0.2945938 -1.1716003 -0.2945938 -2.6343994 -0.2945938 -6.436981l0 -13.171875c0 -8.485535 -3.802578 -13.168488 -12.877296 -13.168488z" fill-rule="evenodd"/><path fill="#ffffff" d="m89.5746 394.6289c-3.5113754 0 -7.0261383 2.3397827 -8.48893 5.8511353l0 -4.9741516l-5.5599594 0l0 31.90036l5.854553 0l0 -14.631317c0 -7.9031067 3.5113754 -12.880676 8.7801285 -12.880676c0.8769989 0 2.048584 0 3.2167816 0.5857849l0 -5.2653503c-1.4627914 -0.29458618 -2.3397827 -0.5857849 -3.8025742 -0.5857849z" fill-rule="evenodd"/><path fill="#ffffff" d="m100.69452 380.58002l0 46.826233l5.8545456 0l0 -46.826233z" fill-rule="evenodd"/><path fill="#ffffff" d="m125.57211 394.6289c-6.4369583 0 -11.414505 3.2167664 -11.414505 9.948303c0 8.780151 14.048889 8.488953 14.048889 14.048889c0 3.511383 -3.511383 4.6829834 -6.1457596 4.6829834c-1.7573776 0 -4.974167 -0.87701416 -7.317337 -2.3398132l-0.29120636 5.265381c2.6343765 1.4661865 5.851166 1.7573853 8.7801285 1.7573853c5.5599594 0 11.119926 -3.2201843 11.119926 -9.951721c0 -10.24292 -13.754303 -8.194336 -13.754303 -14.631287c0 -2.634369 2.6343765 -4.097168 5.5599594 -4.097168c1.4627914 0 4.9741592 0.87698364 6.1457596 1.7539978l0.5857849 -4.974182c-2.3431702 -0.87698364 -4.682953 -1.4627686 -7.317337 -1.4627686z" fill-rule="evenodd"/><path fill="#ffffff" d="m155.42387 394.6289c-3.5113678 0 -6.731537 2.3397827 -8.485535 5.8511353l0 -4.9741516l-5.559967 0l0 31.90036l5.851166 0l0 -14.631317c0 -7.9031067 3.511383 -12.880676 8.780136 -12.880676c0.8769989 0 2.048584 0 3.220169 0.5857849l0 -5.2653503c-1.1715851 -0.29458618 -2.048584 -0.5857849 -3.8059692 -0.5857849z" fill-rule="evenodd"/><path fill="#ffffff" d="m165.67018 395.5059l0 18.731842c0 8.780121 3.8025818 13.754303 11.996918 13.754303c4.391754 0 8.780121 -2.048584 10.537506 -5.854553l0 5.2687683l5.559967 0l0 -31.90036l-5.854553 0l0 14.634674c0 7.8997498 -2.925583 13.168518 -9.657135 13.168518c-4.9741516 -0.29122925 -6.731537 -3.8025818 -6.731537 -11.41452l0 -16.388672z" fill-rule="evenodd"/><path fill="#ffffff" d="m204.00749 380.58002l0 46.826233l5.854538 0l0 -14.925903c0 -7.6085205 2.925583 -13.168488 9.657135 -13.168488c4.977539 0.58239746 6.731537 4.097168 6.731537 11.41449l0 16.679901l5.854553 0l0 -19.023071c0 -8.488922 -3.8059692 -13.754272 -12.000305 -13.754272c-4.3883667 0 -8.194336 2.048584 -10.24292 5.2653503l0 -19.31424z" fill-rule="evenodd"/><path fill="#ffffff" d="m254.63968 399.31186c5.268738 0 7.903137 4.097168 7.903137 9.07132l-16.388672 0c0.5857849 -4.097168 2.9255676 -9.07132 8.485535 -9.07132zm0.29458618 -4.682953c-9.074722 0 -14.925873 6.731537 -14.925873 16.097443c0 10.534149 4.9741516 17.265686 16.388672 17.265686c5.268738 0 7.903137 -1.1716003 9.951721 -2.048584l0 -5.854553c-1.4627991 1.1716003 -5.854553 3.2201843 -9.660522 3.2201843c-5.559967 0 -10.534119 -4.388397 -10.534119 -10.534149l22.82901 0c0 -10.246307 -3.5147705 -18.146027 -14.048889 -18.146027z" fill-rule="evenodd"/><path fill="#ffffff" d="m294.73773 383.80017l0 43.60608l6.145752 0l0 -43.60608z" fill-rule="evenodd"/><path fill="#ffffff" d="m327.8097 394.6289c-4.3917847 0 -8.780151 2.3397827 -10.537537 5.8511353l0 -4.9741516l-5.8511353 0l0 31.90036l5.8511353 0l0 -14.925903c0 -7.6085205 3.2201843 -13.168488 9.660522 -13.168488c5.265381 0.58239746 6.7281494 4.097168 6.7281494 11.41449l0 16.679901l5.854553 0l0 -19.023071c0 -8.488922 -3.5113525 -13.754272 -11.705688 -13.754272z" fill-rule="evenodd"/><path fill="#ffffff" d="m357.95264 394.6289c-6.145752 0 -11.119904 3.2167664 -11.119904 9.948303c0 8.780151 13.754303 8.488953 13.754303 14.048889c0 3.511383 -3.2167969 4.6829834 -6.145752 4.6829834c-1.4627991 0 -4.974182 -0.87701416 -7.3173523 -2.3398132l-0.29119873 5.265381c2.9255676 1.4661865 5.854553 1.7573853 8.780121 1.7573853c5.854553 0 11.123322 -3.2201843 11.123322 -9.951721c0 -10.24292 -13.75769 -8.194336 -13.75769 -14.631287c0 -2.634369 2.634369 -4.097168 5.559967 -4.097168c1.466156 0 4.977539 0.87698364 6.145752 1.7539978l0.5857849 -4.974182c-2.3397827 -0.87698364 -4.3883667 -1.4627686 -7.3173523 -1.4627686z" fill-rule="evenodd"/><path fill="#ffffff" d="m382.53903 386.13995l-5.854553 2.048584l0 7.3173523l-7.317322 0l0 4.682953l7.317322 0l0 18.731842c0 6.145752 3.511383 9.07135 9.660522 9.07135c1.7539978 0 3.8025818 -0.5857849 4.974182 -0.87701416l0 -4.977539c-0.87701416 0.5857849 -2.048584 1.1716003 -4.097168 1.1716003c-2.6343994 0 -4.6829834 -2.048584 -4.6829834 -5.559967l0 -17.560272l8.194336 0l0 -4.682953l-8.194336 0l0 -9.365936z" fill-rule="evenodd"/><path fill="#ffffff" d="m398.6365 381.7516l0 6.4369507l6.4369507 0l0 -6.4369507zm0.29119873 13.754303l0 31.90036l5.854553 0l0 -31.90036z" fill-rule="evenodd"/><path fill="#ffffff" d="m424.09988 386.13995l-5.8545227 2.048584l0 7.3173523l-7.3173523 0l0 4.682953l7.3173523 0l0 18.731842c0 6.145752 3.8025818 9.07135 9.6571045 9.07135c2.048584 0 3.8059692 -0.5857849 4.9775696 -0.87701416l0 -4.977539c-0.8804016 0.5857849 -2.0519714 1.1716003 -3.8059692 1.1716003c-2.634369 0 -4.974182 -2.048584 -4.974182 -5.559967l0 -17.560272l8.485565 0l0 -4.682953l-8.485565 0l0 -9.365936z" fill-rule="evenodd"/><path fill="#ffffff" d="m439.90277 395.5059l0 18.731842c0 8.780121 3.511383 13.754303 12.000305 13.754303c4.3883667 0 8.485535 -2.048584 10.24292 -5.854553l0.29119873 0l0 5.2687683l5.5633545 0l0 -31.90036l-5.854553 0l0 14.634674c0 7.8997498 -2.9255676 13.168518 -9.657135 13.168518c-5.268738 -0.29122925 -6.731537 -3.8025818 -6.731537 -11.41452l0 -16.388672z" fill-rule="evenodd"/><path fill="#ffffff" d="m486.4378 386.13995l-5.854553 2.048584l0 7.3173523l-7.0227356 0l0 4.682953l7.0227356 0l0 18.731842c0 6.145752 3.8059692 9.07135 9.951721 9.07135c1.7573853 0 3.511383 -0.5857849 4.9741516 -0.87701416l0 -4.977539c-0.87698364 0.5857849 -2.3397827 1.1716003 -4.097168 1.1716003c-2.634369 0 -4.9741516 -2.048584 -4.9741516 -5.559967l0 -17.560272l8.485535 0l0 -4.682953l-8.485535 0l0 -9.365936z" fill-rule="evenodd"/><path fill="#ffffff" d="m515.118 399.31186c4.977539 0 7.903137 4.097168 7.903137 9.07132l-16.683258 0c0.5857849 -4.097168 2.928955 -9.07132 8.780121 -9.07132zm0 -4.682953c-9.07135 0 -14.925873 6.731537 -14.925873 16.097443c0 10.534149 5.268738 17.265686 16.39206 17.265686c5.265381 0 7.899719 -1.1716003 10.24292 -2.048584l0 -5.854553c-1.4628296 1.1716003 -6.145752 3.2201843 -9.951721 3.2201843c-5.559967 0 -10.537506 -4.388397 -10.537506 -10.534149l22.82901 0c0 -10.246307 -3.5113525 -18.146027 -14.048889 -18.146027z" fill-rule="evenodd"/><path fill="#ffffff" d="m568.3845 399.31186c6.4403687 0 9.951721 6.145752 9.951721 11.996918c0 5.854553 -2.925537 12.000305 -9.951721 12.000305c-6.7315063 0 -9.948303 -6.145752 -9.948303 -12.000305c0 -5.851166 3.8025513 -11.996918 9.948303 -11.996918zm0 -4.682953c-9.6571045 0 -16.094055 7.0227356 -16.094055 16.67987c0 9.074707 6.7281494 16.683258 16.094055 16.683258c9.660522 0 16.39209 -7.608551 16.39209 -16.683258c0 -9.657135 -6.7315674 -16.67987 -16.39209 -16.67987z" fill-rule="evenodd"/><path fill="#ffffff" d="m607.01984 379.703c-8.780151 0 -10.537537 4.974182 -10.537537 12.877319l0 2.9255676l-7.6085205 0l0 4.682953l7.6085205 0l0 27.217407l5.854553 0l0 -27.217407l8.194336 0l0 -4.682953l-8.194336 0l0 -3.511383c0 -4.391754 0.5858154 -7.6085205 5.5599976 -7.6085205c0.8769531 0 2.048584 0.29119873 2.925537 0.58239746l0 -4.974182c-1.1682129 0 -2.3397827 -0.29119873 -3.8025513 -0.29119873z" fill-rule="evenodd"/><path fill="#ffffff" d="m629.84546 383.80017l0 5.265381l13.463074 0l0 38.3407l6.4403687 0l0 -38.3407l13.463074 0l0 -5.265381z" fill-rule="evenodd"/><path fill="#ffffff" d="m676.96625 399.31186c4.9776 0 7.903137 4.097168 7.903137 9.07132l-16.388672 0c0.29119873 -4.097168 2.6343994 -9.07132 8.485535 -9.07132zm0 -4.682953c-8.78009 0 -14.925842 6.731537 -14.925842 16.097443c0 10.534149 5.268738 17.265686 16.683228 17.265686c5.268799 0 7.6085815 -1.1716003 9.951721 -2.048584l0 -5.854553c-1.4661865 1.1716003 -5.854553 3.2201843 -9.660522 3.2201843c-5.5599365 0 -10.534119 -4.388397 -10.534119 -10.534149l22.534424 0c0 -10.246307 -3.2201538 -18.146027 -14.048889 -18.146027z" fill-rule="evenodd"/><path fill="#ffffff" d="m712.6726 394.6289c-9.657166 0 -16.388672 7.0227356 -16.388672 16.67987c0 9.074707 6.7315063 16.683258 16.388672 16.683258c2.048584 0 4.977539 0 7.317322 -1.1716003l-0.29119873 -5.2653503c-2.048584 1.1681824 -4.3917847 1.7539978 -6.4403687 1.7539978c-7.6085205 0 -10.537476 -6.145752 -10.537476 -12.000305c0 -5.851166 3.5147705 -11.996918 10.246277 -11.996918c1.7540283 0 4.097168 0.58239746 6.145752 1.4627991l0.5858154 -4.6829834c-1.7573853 -0.87698364 -4.6829834 -1.4627686 -7.026123 -1.4627686z" fill-rule="evenodd"/><path fill="#ffffff" d="m726.7215 380.58002l0 46.826233l5.854492 0l0 -14.925903c0 -7.6085205 2.9255981 -13.168488 9.657166 -13.168488c5.268738 0.58239746 6.7315063 4.097168 6.7315063 11.41449l0 16.679901l5.854553 0l0 -19.023071c0 -8.488922 -3.5147095 -13.754272 -11.709045 -13.754272c-4.6829834 0 -8.194336 2.048584 -10.24292 5.2653503l-0.29125977 0l0 -19.31424z" fill-rule="evenodd"/><path fill="#ffffff" d="m781.1596 394.6289c-4.3917236 0 -8.78009 2.3397827 -10.537476 5.8511353l0 -4.9741516l-5.854553 0l0 31.90036l5.854553 0l0 -14.925903c0 -7.6085205 3.2201538 -13.168488 9.951721 -13.168488c4.974121 0.58239746 6.7315063 4.097168 6.7315063 11.41449l0 16.679901l5.8511963 0l0 -19.023071c0 -8.488922 -3.8026123 -13.754272 -11.996948 -13.754272z" fill-rule="evenodd"/><path fill="#ffffff" d="m817.15717 399.31186c6.145752 0 9.95166 6.145752 9.95166 11.996918c0 5.854553 -3.2201538 12.000305 -9.95166 12.000305c-7.022766 0 -9.951721 -6.145752 -9.951721 -12.000305c0 -5.851166 3.5147095 -11.996918 9.951721 -11.996918zm0 -4.682953c-9.657166 0 -16.097473 7.0227356 -16.097473 16.67987c0 9.074707 6.4403076 16.683258 16.097473 16.683258c9.6571045 0 16.097412 -7.608551 16.097412 -16.683258c0 -9.657135 -6.4403076 -16.67987 -16.097412 -16.67987z" fill-rule="evenodd"/><path fill="#ffffff" d="m842.0347 380.58002l0 46.826233l5.854553 0l0 -46.826233z" fill-rule="evenodd"/><path fill="#ffffff" d="m872.7635 399.31186c6.14917 0 9.951721 6.145752 9.951721 11.996918c0 5.854553 -3.2201538 12.000305 -9.951721 12.000305c-7.022766 0 -9.948303 -6.145752 -9.948303 -12.000305c0 -5.851166 3.5113525 -11.996918 9.948303 -11.996918zm0 -4.682953c-9.948303 0 -16.388672 7.0227356 -16.388672 16.67987c0 9.074707 6.7315674 16.683258 16.388672 16.683258c9.365906 0 16.097473 -7.608551 16.097473 -16.683258c0 -9.657135 -6.4369507 -16.67987 -16.097473 -16.67987z" fill-rule="evenodd"/><path fill="#ffffff" d="m909.6414 399.31186c6.4403076 0 9.365906 5.851166 9.365906 12.291504c0 6.145752 -3.8059692 10.828705 -9.365906 10.828705c-5.5599976 0 -8.780151 -5.268738 -8.780151 -11.123291c0 -5.559967 2.9255981 -11.996918 8.780151 -11.996918zm-0.87701416 -4.682953c-9.6571045 0 -14.048889 8.780121 -14.048889 16.974457c0 8.194336 4.3917847 15.802887 13.463074 15.802887c4.097168 0 8.194336 -1.7539978 10.828735 -4.974182l0 2.9255981c0 6.731537 -3.8059692 11.123291 -9.951721 11.123291c-4.097168 0 -7.022766 -0.8803711 -11.41449 -2.928955l-0.5858154 5.563324c4.977539 1.7539978 7.903137 2.048584 11.41449 2.048584c11.414551 0 16.39209 -5.563324 16.39209 -15.220459l0 -30.437561l-5.5633545 0l0 4.682953c-1.7539673 -3.5113525 -4.974182 -5.5599365 -10.534119 -5.5599365z" fill-rule="evenodd"/><path fill="#ffffff" d="m930.4218 395.5059l10.537537 29.560547c0.58239746 1.1682129 1.1682129 2.9255981 1.1682129 3.511383c0 0.5857849 -1.7540283 7.903137 -7.022766 7.903137c-0.87701416 0 -1.7573853 -0.29458618 -2.6343994 -0.5857849l-0.29119873 4.9741516c0.87701416 0 2.048584 0.29458618 3.8026123 0.29458618c7.903076 0 10.24292 -7.026123 12.291504 -13.171875l11.709045 -32.486145l-5.854553 0l-8.78009 26.340393l-8.488953 -26.340393z" fill-rule="evenodd"/></g></svg>