<svg xmlns:xlink="http://www.w3.org/1999/xlink" xmlns="http://www.w3.org/2000/svg" role="img" width="121" height="50" viewBox="0 0 121 50" fill="none">
		<title fill="#FFFFFF">RIG</title>
		<path class="rigw-logo-text" d="M63.1417 40.1388H67.1128V43.9542C66.7859 44.3437 66.381 44.7019 65.9137 45.0132C65.1194 45.5584 63.9515 46.0567 62.4409 46.0567C59.1705 46.0567 56.6787 43.565 56.6787 40.4504C56.6787 37.3356 59.1705 34.8438 62.4409 34.8438C63.9359 34.8438 65.0261 35.3578 65.7735 35.9028C66.194 36.2143 66.5678 36.5569 66.8794 36.9463L65.7892 38.0363C65.5711 37.7406 65.2908 37.4603 64.9639 37.2266C64.403 36.8062 63.5621 36.4011 62.4409 36.4011C60.1828 36.4011 58.3918 38.1921 58.3918 40.4504C58.3918 42.7085 60.1828 44.4994 62.4409 44.4994C63.422 44.4994 64.154 44.2191 64.6523 43.9232C64.9482 43.7518 65.1973 43.5494 65.3997 43.3314V41.6962H63.1416L63.1417 40.1388Z" fill="#FFFFFF"></path>
		<path class="rigw-logo-text" d="M76.0685 44.6552C75.866 44.9199 75.6011 45.1534 75.2898 45.356C74.7446 45.7142 73.9816 46.0567 72.8759 46.0567C70.6955 46.0567 68.9825 44.3437 68.9825 42.1633C68.9825 39.9831 70.6955 38.27 72.7981 38.27C74.916 38.27 76.4577 39.8119 76.4577 41.9298C76.4577 42.1633 76.4266 42.3503 76.411 42.4904L76.3798 42.7085H70.6177C70.789 43.7208 71.6922 44.5773 72.9536 44.5773C73.6234 44.5773 74.1684 44.328 74.5422 44.079C74.7602 43.9388 74.9626 43.7674 75.134 43.565L76.0685 44.6552ZM74.8225 41.3846C74.589 40.3725 73.9037 39.6717 72.7981 39.6717C71.6144 39.6717 70.9292 40.3725 70.6177 41.3846H74.8225Z" fill="#FFFFFF"></path>
		<path class="rigw-logo-text" d="M78.1714 38.4258H79.7287V39.4381C79.8999 39.2356 80.0869 39.033 80.3049 38.8618C80.6785 38.5659 81.2393 38.27 81.9867 38.27H82.3762V39.9052L82.1736 39.8741C82.049 39.8585 81.9245 39.8273 81.7531 39.8273C80.6785 39.8273 79.7287 40.7617 79.7287 42.0856V45.901H78.1713L78.1714 38.4258Z" fill="#FFFFFF"></path>
		<path class="rigw-logo-text" d="M83.7779 38.4258H85.3352V39.516C85.4598 39.2823 85.6311 39.0799 85.8336 38.8929C86.1918 38.5815 86.7212 38.27 87.5154 38.27C88.3253 38.27 88.9172 38.5815 89.2908 38.8929C89.5088 39.0799 89.6958 39.2823 89.8514 39.516C89.9915 39.2823 90.1942 39.0799 90.4276 38.8929C90.8481 38.5815 91.4866 38.27 92.421 38.27C93.9006 38.27 95.1464 39.516 95.1464 41.4625V45.901H93.5891V41.4625C93.5891 40.3569 92.9039 39.7494 92.0318 39.7494C91.0195 39.7494 90.2408 40.5281 90.2408 41.774V45.901H88.6835V41.4625C88.6835 40.3569 87.9982 39.7494 87.1262 39.7494C86.1139 39.7494 85.3352 40.5281 85.3352 41.774V45.901H83.7779V38.4258Z" fill="#FFFFFF"></path>
		<path class="rigw-logo-text" d="M101.688 44.8108C101.532 45.0444 101.33 45.2469 101.096 45.4339C100.676 45.7452 100.084 46.0567 99.2741 46.0567C97.7791 46.0567 96.7824 45.0444 96.7824 43.8764C96.7824 42.6306 97.6389 41.774 98.9628 41.5404L101.688 41.0733C101.688 40.279 101.065 39.6717 100.131 39.6717C99.5234 39.6717 99.0717 39.9364 98.7135 40.1855C98.5111 40.3256 98.3397 40.497 98.1841 40.6838L97.1718 39.6717C97.3742 39.4068 97.6235 39.1732 97.9193 38.9708C98.4176 38.6126 99.134 38.27 100.131 38.27C102 38.27 103.245 39.516 103.245 41.1512V45.901H101.688V44.8108ZM101.688 42.319L99.5078 42.7085C98.7135 42.8486 98.3397 43.2378 98.3397 43.7208C98.3397 44.2658 98.7914 44.7329 99.5857 44.7329C100.754 44.7329 101.688 43.7987 101.688 42.5527V42.319Z" fill="#FFFFFF"></path>
		<path class="rigw-logo-text" d="M105.426 38.4258H106.983V39.516C107.139 39.2823 107.326 39.0799 107.56 38.8929C107.949 38.5815 108.525 38.27 109.319 38.27C111.032 38.27 112.278 39.5003 112.278 41.5404V45.901H110.721V41.5404C110.721 40.4348 110.02 39.7494 109.008 39.7494C107.84 39.7494 106.983 40.606 106.983 41.8519V45.901H105.426V38.4258Z" fill="#FFFFFF"></path>
		<path class="rigw-logo-text" d="M113.836 47.4583C113.914 47.5049 113.992 47.5362 114.101 47.5828C114.272 47.6453 114.475 47.6919 114.771 47.6919C115.393 47.6919 115.845 47.3025 116.094 46.6796L116.406 45.901L113.369 38.4258H115.082L117.184 43.9542L119.287 38.4258H121L117.73 46.7575C117.107 48.3304 116.25 49.1714 115.004 49.1714C114.646 49.1714 114.366 49.1247 114.163 49.0624L113.836 48.9377V47.4583Z" fill="#FFFFFF"></path>
		<path class="rigw-logo-text" d="M57.3795 0.000691875H61.8959C63.9982 0.000691875 65.4776 1.49573 65.4776 3.42686C65.4776 4.65711 64.9482 5.40463 64.4343 5.88746C64.1227 6.16777 63.7802 6.38581 63.3909 6.54158L65.8671 10.9021H63.9203L62.1546 7.73599C61.8506 7.19087 61.2754 6.85302 60.6512 6.85302H59.0926V10.9021H57.3795V0.000691875ZM61.8959 5.29561C63.0397 5.29561 63.8169 4.47886 63.7618 3.31088C63.7152 2.32526 62.8826 1.5581 61.8959 1.5581H59.0926V5.29561H61.8959Z" fill="#FFFFFF"></path>
		<path class="rigw-logo-text" d="M70.9295 3.27109C73.1094 3.27123 74.8223 4.98412 74.8225 7.16419C74.8226 9.30168 73.0658 11.0583 70.9284 11.0578C68.7486 11.0574 67.0362 9.34492 67.0357 7.16531C67.0353 5.0278 68.792 3.27095 70.9295 3.27109ZM73.2652 7.16447C73.2652 5.74731 72.2529 4.75061 70.9292 4.75061C69.6053 4.75061 68.593 5.74731 68.593 7.16447C68.593 8.58162 69.6053 9.57832 70.9292 9.57832C72.2529 9.57832 73.2652 8.58162 73.2652 7.16447Z" fill="#FFFFFF"></path>
		<path class="rigw-logo-text" d="M76.6138 0.000691875H78.1712V4.51696C78.3269 4.2834 78.5294 4.08098 78.7784 3.89407C79.1989 3.58263 79.822 3.27109 80.7408 3.27109C82.6094 3.27109 84.2446 4.90628 84.2446 7.16447C84.2446 9.42265 82.6094 11.0578 80.7408 11.0578C79.822 11.0578 79.1989 10.7463 78.7784 10.4349C78.5294 10.248 78.3269 10.0455 78.1712 9.81197V10.9021H76.6138V0.000691875ZM82.6873 7.16447C82.6873 5.74731 81.675 4.75061 80.4292 4.75061C79.1835 4.75061 78.1712 5.74731 78.1712 7.16447C78.1712 8.58162 79.1835 9.57832 80.4292 9.57832C81.675 9.57832 82.6873 8.58162 82.6873 7.16447Z" fill="#FFFFFF"></path>
		<path class="rigw-logo-text" d="M89.3849 3.27109C91.5649 3.27123 93.2778 4.98412 93.278 7.16419C93.2781 9.30168 91.5213 11.0583 89.3838 11.0578C87.2041 11.0574 85.4916 9.34492 85.4912 7.16531C85.4908 5.0278 87.2474 3.27095 89.3849 3.27109ZM91.7206 7.16447C91.7206 5.74731 90.7083 4.75061 89.3847 4.75061C88.0608 4.75061 87.0485 5.74731 87.0485 7.16447C87.0485 8.58162 88.0608 9.57832 89.3847 9.57832C90.7083 9.57832 91.7206 8.58162 91.7206 7.16447Z" fill="#FFFFFF"></path>
		<path class="rigw-logo-text" d="M95.7701 4.90628H94.3683V3.42686H95.2249C95.7078 3.42686 95.9259 3.1933 95.9259 2.57032V0.93512H97.3274V3.42686H99.0405V4.90628H97.3274V8.41033C97.3274 9.18899 97.6856 9.57832 98.4176 9.57832C98.6511 9.57832 98.8535 9.53167 99.0249 9.4693L99.2741 9.34476V10.8242L98.947 10.9488C98.7446 11.0111 98.4642 11.0578 98.1061 11.0578C96.611 11.0578 95.7701 10.2013 95.7701 8.5661V4.90628Z" fill="#FFFFFF"></path>
		<path class="rigw-logo-text" d="M102 0.156462C102.482 0.156462 102.934 0.54579 102.934 1.09089C102.934 1.63589 102.482 2.02522 102 2.02522C101.517 2.02522 101.065 1.63589 101.065 1.09089C101.065 0.54579 101.517 0.156462 102 0.156462ZM101.221 3.42686H102.778V10.9021H101.221V3.42686Z" fill="#FFFFFF"></path>
		<path class="rigw-logo-text" d="M111.656 9.50043C111.422 9.79636 111.157 10.0455 110.846 10.2791C110.346 10.6361 109.65 10.993 108.722 11.05C106.488 11.187 104.612 9.48005 104.57 7.2428C104.529 5.02534 106.257 3.27109 108.463 3.27109C109.522 3.27109 110.301 3.6449 110.815 4.01861C111.11 4.23665 111.375 4.48582 111.578 4.75061L110.487 5.76283C110.347 5.57602 110.176 5.40463 109.973 5.26448C109.615 5.0153 109.133 4.75062 108.463 4.75062C107.139 4.75062 106.127 5.74731 106.127 7.16447C106.127 8.58162 107.139 9.57832 108.463 9.57832C109.133 9.57832 109.647 9.32915 110.005 9.03332C110.207 8.87755 110.394 8.69064 110.565 8.48822L111.656 9.50043Z" fill="#FFFFFF"></path>
		<path class="rigw-logo-text" d="M113.447 8.64389C113.602 8.84641 113.774 9.0177 113.976 9.15785C114.334 9.40703 114.786 9.6562 115.393 9.6562C116.266 9.6562 116.717 9.2046 116.717 8.72178C116.717 7.4759 112.746 8.11441 112.746 5.45138C112.746 4.2834 113.774 3.27108 115.471 3.27108C116.359 3.27108 117.029 3.53588 117.465 3.78505C117.729 3.9252 117.947 4.09649 118.119 4.28339L117.107 5.29561C116.982 5.18669 116.842 5.07767 116.67 4.98417C116.375 4.81288 115.97 4.67273 115.471 4.67273C114.677 4.67273 114.303 5.06205 114.303 5.45138C114.303 6.69725 118.274 6.07437 118.274 8.72178C118.274 9.96765 117.2 11.0578 115.393 11.0578C114.397 11.0578 113.68 10.7152 113.182 10.357C112.886 10.1545 112.637 9.92099 112.435 9.6562L113.447 8.64389Z" fill="#FFFFFF"></path>
		<path class="rigw-logo-text" d="M57.3795 17.5001H59.0926V28.4015H57.3795V17.5001Z" fill="#FFFFFF"></path>
		<path class="rigw-logo-text" d="M61.7405 20.9263H63.2978V22.0164C63.4536 21.7828 63.6404 21.5804 63.8741 21.3935C64.2633 21.082 64.8395 20.7705 65.6338 20.7705C67.3469 20.7705 68.5926 22.0008 68.5926 24.0409V28.4015H67.0353V24.0409C67.0353 22.9353 66.3346 22.25 65.3222 22.25C64.1544 22.25 63.2978 23.1066 63.2978 24.3524V28.4015H61.7405V20.9263Z" fill="#FFFFFF"></path>
		<path class="rigw-logo-text" d="M71.0848 26.1433C71.2405 26.3458 71.4119 26.5171 71.6144 26.6573C71.9726 26.9064 72.4241 27.1556 73.0315 27.1556C73.9037 27.1556 74.3552 26.704 74.3552 26.2212C74.3552 24.9753 70.384 25.6138 70.384 22.9508C70.384 21.7828 71.4119 20.7705 73.1094 20.7705C73.997 20.7705 74.6667 21.0353 75.1028 21.2845C75.3675 21.4246 75.5855 21.5959 75.7569 21.7828L74.7446 22.7951C74.6201 22.6861 74.4799 22.5771 74.3085 22.4836C74.0126 22.3123 73.6077 22.1721 73.1094 22.1721C72.3151 22.1721 71.9413 22.5615 71.9413 22.9508C71.9413 24.1967 75.9127 23.5738 75.9127 26.2212C75.9127 27.4671 74.8381 28.5573 73.0315 28.5573C72.0348 28.5573 71.3184 28.2146 70.8201 27.8564C70.5242 27.654 70.2751 27.4204 70.0727 27.1556L71.0848 26.1433Z" fill="#FFFFFF"></path>
		<path class="rigw-logo-text" d="M78.3269 22.4057H76.9252V20.9263H77.7817C78.2647 20.9263 78.4827 20.6927 78.4827 20.0697V18.4345H79.8842V20.9263H81.5973V22.4057H79.8842V25.9097C79.8842 26.6884 80.2424 27.0777 80.9744 27.0777C81.2079 27.0777 81.4103 27.031 81.5817 26.9687L81.831 26.8442V28.3236L81.5038 28.4482C81.3014 28.5105 81.0211 28.5573 80.6629 28.5573C79.1679 28.5573 78.3269 27.7007 78.3269 26.0655V22.4057Z" fill="#FFFFFF"></path>
		<path class="rigw-logo-text" d="M84.5566 17.6559C85.0393 17.6559 85.491 18.0452 85.491 18.5903C85.491 19.1353 85.0393 19.5246 84.5566 19.5246C84.0736 19.5246 83.6221 19.1353 83.6221 18.5903C83.6221 18.0452 84.0736 17.6559 84.5566 17.6559ZM83.7779 20.9263H85.3352V28.4015H83.7779V20.9263Z" fill="#FFFFFF"></path>
		<path class="rigw-logo-text" d="M88.3724 22.4057H86.9706V20.9263H87.8272C88.3101 20.9263 88.5281 20.6927 88.5281 20.0697V18.4345H89.9297V20.9263H91.6428V22.4057H89.9297V25.9097C89.9297 26.6884 90.2879 27.0777 91.0199 27.0777C91.2533 27.0777 91.4557 27.031 91.6271 26.9687L91.8764 26.8442V28.3236L91.5493 28.4482C91.3468 28.5105 91.0665 28.5573 90.7083 28.5573C89.2133 28.5573 88.3724 27.7007 88.3724 26.0655V22.4057Z" fill="#FFFFFF"></path>
		<path class="rigw-logo-text" d="M93.5899 20.9263H95.1472V25.2869C95.1472 26.3925 95.848 27.0777 96.8603 27.0777C98.0282 27.0777 98.8847 26.2212 98.8847 24.9753V20.9263H100.442V28.4015H98.8847V27.3114C98.7135 27.5449 98.5265 27.7474 98.2931 27.9343C97.9036 28.2457 97.343 28.5573 96.5487 28.5573C94.8357 28.5573 93.5899 27.3269 93.5899 25.2869V20.9263Z" fill="#FFFFFF"></path>
		<path class="rigw-logo-text" d="M103.401 22.4057H102V20.9263H102.856C103.339 20.9263 103.557 20.6927 103.557 20.0697V18.4345H104.959V20.9263H106.672V22.4057H104.959V25.9097C104.959 26.6884 105.317 27.0777 106.049 27.0777C106.282 27.0777 106.485 27.031 106.656 26.9687L106.906 26.8442V28.3236L106.578 28.4482C106.376 28.5105 106.096 28.5573 105.737 28.5573C104.242 28.5573 103.401 27.7007 103.401 26.0655V22.4057Z" fill="#FFFFFF"></path>
		<path class="rigw-logo-text" d="M115.237 27.1556C115.035 27.4204 114.77 27.654 114.459 27.8564C113.914 28.2146 113.151 28.5573 112.045 28.5573C109.865 28.5573 108.151 26.8442 108.151 24.6639C108.151 22.4836 109.865 20.7705 111.967 20.7705C114.085 20.7705 115.627 22.3123 115.627 24.4303C115.627 24.6639 115.596 24.8508 115.58 24.9909L115.549 25.209H109.787C109.958 26.2212 110.861 27.0777 112.123 27.0777C112.792 27.0777 113.337 26.8285 113.711 26.5794C113.929 26.4392 114.132 26.2679 114.303 26.0655L115.237 27.1556ZM113.992 23.8852C113.758 22.8729 113.073 22.1721 111.967 22.1721C110.783 22.1721 110.098 22.8729 109.787 23.8852H113.992Z" fill="#FFFFFF"></path>
		<path class="rigw-logo-icon" d="M45.78 21.2299C32.2724 21.1897 24.6733 14.5842 24.6733 0H21.2305V14.0583C21.2305 18.4893 19.4225 21.2223 13.8014 21.2299H0V24.6738H13.8014C19.4225 24.6815 21.2305 27.4145 21.2305 31.8454V45.9038H24.6733C24.6733 31.3195 32.2724 24.7141 45.78 24.6738H45.9038V21.2299H45.78Z" fill="#FFFFFF"></path>
	</svg>